<?xml version="1.0" encoding="UTF-8"?>
<svg xmlns="http://www.w3.org/2000/svg" xmlns:xlink="http://www.w3.org/1999/xlink" width="93" height="93" viewBox="0 0 93 93" version="1.1">
<g id="surface1221">
<path style=" stroke:none;fill-rule:evenodd;fill:rgb(78.431373%,0%,0%);fill-opacity:0.498039;" d="M 76 59 C 76 75.570312 62.570312 89 46 89 C 29.429688 89 16 75.570312 16 59 C 16 42.429688 29.429688 29 46 29 C 62.570312 29 76 42.429688 76 59 Z M 76 59 "/>
<path style=" stroke:none;fill-rule:evenodd;fill:rgb(0%,0%,100%);fill-opacity:0.498039;" d="M 89 33 C 89 49.570312 75.570312 63 59 63 C 42.429688 63 29 49.570312 29 33 C 29 16.429688 42.429688 3 59 3 C 75.570312 3 89 16.429688 89 33 Z M 89 33 "/>
<path style=" stroke:none;fill-rule:evenodd;fill:rgb(0%,58.823529%,0%);fill-opacity:0.498039;" d="M 63 33 C 63 49.570312 49.570312 63 33 63 C 16.429688 63 3 49.570312 3 33 C 3 16.429688 16.429688 3 33 3 C 49.570312 3 63 16.429688 63 33 Z M 63 33 "/>
</g>
</svg>
