<?xml version="1.0" encoding="UTF-8"?>
<svg xmlns="http://www.w3.org/2000/svg" xmlns:xlink="http://www.w3.org/1999/xlink" width="37" height="37" viewBox="0 0 37 37" version="1.1">
<g id="surface619">
<path style=" stroke:none;fill-rule:nonzero;fill:rgb(100%,0%,0%);fill-opacity:0.0980392;" d="M 13.488281 32.09375 C 13.488281 32.09375 32.773438 9.113281 32.773438 9.113281 C 32.773438 9.113281 3.226562 3.90625 3.226562 3.90625 C 3.226562 3.90625 13.488281 32.09375 13.488281 32.09375 Z M 13.488281 32.09375 "/>
<path style=" stroke:none;fill-rule:nonzero;fill:rgb(100%,0%,0%);fill-opacity:0.196078;" d="M 9.113281 32.773438 C 9.113281 32.773438 32.09375 13.488281 32.09375 13.488281 C 32.09375 13.488281 3.90625 3.226562 3.90625 3.226562 C 3.90625 3.226562 9.113281 32.773438 9.113281 32.773438 Z M 9.113281 32.773438 "/>
<path style=" stroke:none;fill-rule:nonzero;fill:rgb(100%,0%,0%);fill-opacity:0.294118;" d="M 5.007812 33 C 5.007812 33 30.992188 18 30.992188 18 C 30.992188 18 5.007812 3 5.007812 3 C 5.007812 3 5.007812 33 5.007812 33 Z M 5.007812 33 "/>
<path style=" stroke:none;fill-rule:nonzero;fill:rgb(100%,0%,0%);fill-opacity:0.392157;" d="M 3.90625 32.773438 C 3.90625 32.773438 32.09375 22.511719 32.09375 22.511719 C 32.09375 22.511719 9.113281 3.226562 9.113281 3.226562 C 9.113281 3.226562 3.90625 32.773438 3.90625 32.773438 Z M 3.90625 32.773438 "/>
<path style=" stroke:none;fill-rule:nonzero;fill:rgb(100%,0%,0%);fill-opacity:0.490196;" d="M 3.226562 32.09375 C 3.226562 32.09375 32.773438 26.886719 32.773438 26.886719 C 32.773438 26.886719 13.488281 3.90625 13.488281 3.90625 C 13.488281 3.90625 3.226562 32.09375 3.226562 32.09375 Z M 3.226562 32.09375 "/>
<path style=" stroke:none;fill-rule:nonzero;fill:rgb(100%,0%,0%);fill-opacity:1;" d="M 3 30.992188 C 3 30.992188 33 30.992188 33 30.992188 C 33 30.992188 18 5.007812 18 5.007812 C 18 5.007812 3 30.992188 3 30.992188 Z M 3 30.992188 "/>
</g>
</svg>
