<?xml version="1.0" encoding="UTF-8"?>
<svg xmlns="http://www.w3.org/2000/svg" xmlns:xlink="http://www.w3.org/1999/xlink" width="167" height="148" viewBox="0 0 167 148" version="1.1">
<g id="surface1664">
<path style=" stroke:none;fill-rule:evenodd;fill:rgb(62.745098%,12.54902%,94.117647%);fill-opacity:1;" d="M 115.320312 89.402344 C 129.128906 113.316406 132.566406 137.179688 123 142.703125 C 113.433594 148.226562 94.488281 133.316406 80.679688 109.402344 C 66.871094 85.488281 63.433594 61.625 73 56.101562 C 82.566406 50.578125 101.511719 65.488281 115.320312 89.402344 Z M 115.320312 89.402344 "/>
<path style=" stroke:none;fill-rule:evenodd;fill:rgb(62.745098%,12.54902%,94.117647%);fill-opacity:1;" d="M 93 56.101562 C 102.566406 61.625 99.128906 85.488281 85.320312 109.402344 C 71.511719 133.316406 52.566406 148.226562 43 142.703125 C 33.433594 137.179688 36.871094 113.316406 50.679688 89.402344 C 64.488281 65.488281 83.433594 50.578125 93 56.101562 Z M 93 56.101562 "/>
<path style=" stroke:none;fill-rule:evenodd;fill:rgb(62.745098%,12.54902%,94.117647%);fill-opacity:1;" d="M 103 73.421875 C 103 84.46875 80.613281 93.421875 53 93.421875 C 25.386719 93.421875 3 84.46875 3 73.421875 C 3 62.375 25.386719 53.421875 53 53.421875 C 80.613281 53.421875 103 62.375 103 73.421875 Z M 103 73.421875 "/>
<path style=" stroke:none;fill-rule:evenodd;fill:rgb(62.745098%,12.54902%,94.117647%);fill-opacity:1;" d="M 85.320312 37.441406 C 99.128906 61.355469 102.566406 85.21875 93 90.742188 C 83.433594 96.265625 64.488281 81.355469 50.679688 57.441406 C 36.871094 33.527344 33.433594 9.664062 43 4.140625 C 52.566406 -1.382812 71.511719 13.527344 85.320312 37.441406 Z M 85.320312 37.441406 "/>
<path style=" stroke:none;fill-rule:evenodd;fill:rgb(62.745098%,12.54902%,94.117647%);fill-opacity:1;" d="M 123 4.140625 C 132.566406 9.664062 129.128906 33.527344 115.320312 57.441406 C 101.511719 81.355469 82.566406 96.265625 73 90.742188 C 63.433594 85.21875 66.871094 61.355469 80.679688 37.441406 C 94.488281 13.527344 113.433594 -1.382812 123 4.140625 Z M 123 4.140625 "/>
<path style=" stroke:none;fill-rule:evenodd;fill:rgb(62.745098%,12.54902%,94.117647%);fill-opacity:1;" d="M 163 73.421875 C 163 84.46875 140.613281 93.421875 113 93.421875 C 85.386719 93.421875 63 84.46875 63 73.421875 C 63 62.375 85.386719 53.421875 113 53.421875 C 140.613281 53.421875 163 62.375 163 73.421875 Z M 163 73.421875 "/>
<path style=" stroke:none;fill-rule:evenodd;fill:rgb(100%,100%,0%);fill-opacity:1;" d="M 113 73.421875 C 113 89.992188 99.570312 103.421875 83 103.421875 C 66.429688 103.421875 53 89.992188 53 73.421875 C 53 56.851562 66.429688 43.421875 83 43.421875 C 99.570312 43.421875 113 56.851562 113 73.421875 Z M 113 73.421875 "/>
</g>
</svg>
