<?xml version="1.0" encoding="UTF-8"?>
<svg xmlns="http://www.w3.org/2000/svg" xmlns:xlink="http://www.w3.org/1999/xlink" width="87" height="77" viewBox="0 0 87 77" version="1.1">
<g id="surface1676">
<path style=" stroke:none;fill-rule:nonzero;fill:rgb(100%,64.705882%,0%);fill-opacity:1;" d="M 43 37.640625 C 43 37.640625 83 37.640625 83 37.640625 C 83 37.640625 63 3 63 3 C 63 3 43 37.640625 43 37.640625 Z M 43 37.640625 "/>
<path style=" stroke:none;fill-rule:nonzero;fill:rgb(100%,64.705882%,0%);fill-opacity:1;" d="M 3 37.640625 C 3 37.640625 43 37.640625 43 37.640625 C 43 37.640625 23 3 23 3 C 23 3 3 37.640625 3 37.640625 Z M 3 37.640625 "/>
<path style=" stroke:none;fill-rule:nonzero;fill:rgb(100%,64.705882%,0%);fill-opacity:1;" d="M 23 72.640625 C 23 72.640625 63 72.640625 63 72.640625 C 63 72.640625 43 38 43 38 C 43 38 23 72.640625 23 72.640625 Z M 23 72.640625 "/>
</g>
</svg>
