<?xml version="1.0" encoding="UTF-8"?>
<svg xmlns="http://www.w3.org/2000/svg" xmlns:xlink="http://www.w3.org/1999/xlink" width="147" height="47" viewBox="0 0 147 47" version="1.1">
<g id="surface1215">
<path style=" stroke:none;fill-rule:evenodd;fill:rgb(100%,54.901961%,0%);fill-opacity:1;" d="M 143 23 C 143 34.046875 134.046875 43 123 43 C 111.953125 43 103 34.046875 103 23 C 103 11.953125 111.953125 3 123 3 C 134.046875 3 143 11.953125 143 23 Z M 143 23 "/>
<path style=" stroke:none;fill-rule:evenodd;fill:rgb(100%,54.901961%,0%);fill-opacity:1;" d="M 43 23 C 43 34.046875 34.046875 43 23 43 C 11.953125 43 3 34.046875 3 23 C 3 11.953125 11.953125 3 23 3 C 34.046875 3 43 11.953125 43 23 Z M 43 23 "/>
<path style=" stroke:none;fill-rule:nonzero;fill:rgb(0%,0%,0%);fill-opacity:1;" d="M 43 13 C 43 13 103 13 103 13 C 103 13 103 33 103 33 C 103 33 43 33 43 33 C 43 33 43 13 43 13 Z M 43 13 "/>
</g>
</svg>
