<?xml version="1.0" encoding="UTF-8"?>
<svg xmlns="http://www.w3.org/2000/svg" xmlns:xlink="http://www.w3.org/1999/xlink" width="143" height="143" viewBox="0 0 143 143" version="1.1">
<g id="surface1233">
<path style=" stroke:none;fill-rule:evenodd;fill:rgb(39.215686%,58.431373%,92.941176%);fill-opacity:1;" d="M 63 109.273438 C 63 125.84375 49.570312 139.273438 33 139.273438 C 16.429688 139.273438 3 125.84375 3 109.273438 C 3 92.707031 16.429688 79.273438 33 79.273438 C 49.570312 79.273438 63 92.707031 63 109.273438 Z M 63 109.273438 "/>
<path style=" stroke:none;fill-rule:nonzero;fill:rgb(14.117647%,14.117647%,54.901961%);fill-opacity:1;" d="M 66.136719 129.273438 C 66.136719 129.273438 121.339844 111.339844 121.339844 111.339844 C 121.339844 111.339844 139.273438 56.136719 139.273438 56.136719 C 139.273438 56.136719 105.160156 9.179688 105.160156 9.179688 C 105.160156 9.179688 47.117188 9.179688 47.117188 9.179688 C 47.117188 9.179688 13 56.136719 13 56.136719 C 13 56.136719 30.9375 111.339844 30.9375 111.339844 C 30.9375 111.339844 86.136719 129.273438 86.136719 129.273438 C 86.136719 129.273438 133.09375 95.160156 133.09375 95.160156 C 133.09375 95.160156 133.09375 37.117188 133.09375 37.117188 C 133.09375 37.117188 86.136719 3 86.136719 3 C 86.136719 3 30.9375 20.9375 30.9375 20.9375 C 30.9375 20.9375 13 76.136719 13 76.136719 C 13 76.136719 47.117188 123.09375 47.117188 123.09375 C 47.117188 123.09375 105.160156 123.09375 105.160156 123.09375 C 105.160156 123.09375 139.273438 76.136719 139.273438 76.136719 C 139.273438 76.136719 121.339844 20.9375 121.339844 20.9375 C 121.339844 20.9375 66.136719 3 66.136719 3 C 66.136719 3 19.179688 37.117188 19.179688 37.117188 C 19.179688 37.117188 19.179688 95.160156 19.179688 95.160156 C 19.179688 95.160156 66.136719 129.273438 66.136719 129.273438 Z M 66.136719 129.273438 "/>
</g>
</svg>
