<?xml version="1.0" encoding="UTF-8"?>
<svg xmlns="http://www.w3.org/2000/svg" xmlns:xlink="http://www.w3.org/1999/xlink" width="187" height="187" viewBox="0 0 187 187" version="1.1">
<g id="surface1167">
<path style=" stroke:none;fill-rule:nonzero;fill:rgb(100%,100%,0%);fill-opacity:1;" d="M 3 3 C 3 3 183 3 183 3 C 183 3 183 183 183 183 C 183 183 3 183 3 183 C 3 183 3 3 3 3 Z M 3 3 "/>
<path style="fill:none;stroke-width:1;stroke-linecap:round;stroke-linejoin:miter;stroke:rgb(0%,0%,0%);stroke-opacity:1;stroke-miterlimit:10;" d="M 112.5 163.5 C 112.5 163.5 29.5 151.5 29.5 151.5 C 29.5 151.5 49.5 39.5 49.5 39.5 C 49.5 39.5 96.5 47.5 96.5 47.5 C 96.5 47.5 92.5 71.5 92.5 71.5 C 92.5 71.5 125.5 75.5 125.5 75.5 C 125.5 75.5 112.5 163.5 112.5 163.5 Z M 112.5 163.5 "/>
</g>
</svg>
