<?xml version="1.0" encoding="UTF-8"?>
<svg xmlns="http://www.w3.org/2000/svg" xmlns:xlink="http://www.w3.org/1999/xlink" width="207" height="207" viewBox="0 0 207 207" version="1.1">
<g id="surface561">
<path style=" stroke:none;fill-rule:evenodd;fill:rgb(0%,0%,0%);fill-opacity:1;" d="M 203 103 C 203 158.226562 158.226562 203 103 203 C 47.773438 203 3 158.226562 3 103 C 3 47.773438 47.773438 3 103 3 C 158.226562 3 203 47.773438 203 103 Z M 203 103 "/>
<path style=" stroke:none;fill-rule:evenodd;fill:rgb(100%,100%,100%);fill-opacity:1;" d="M 138.980469 51.15625 C 138.980469 77.117188 117.9375 98.15625 91.980469 98.15625 C 66.023438 98.15625 44.980469 77.117188 44.980469 51.15625 C 44.980469 25.199219 66.023438 4.15625 91.980469 4.15625 C 117.9375 4.15625 138.980469 25.199219 138.980469 51.15625 Z M 138.980469 51.15625 "/>
<path style=" stroke:none;fill-rule:evenodd;fill:rgb(100%,100%,100%);fill-opacity:1;" d="M 142.054688 50.019531 C 142.054688 75.703125 121.234375 96.519531 95.554688 96.519531 C 69.871094 96.519531 49.054688 75.703125 49.054688 50.019531 C 49.054688 24.339844 69.871094 3.519531 95.554688 3.519531 C 121.234375 3.519531 142.054688 24.339844 142.054688 50.019531 Z M 142.054688 50.019531 "/>
<path style=" stroke:none;fill-rule:evenodd;fill:rgb(100%,100%,100%);fill-opacity:1;" d="M 145.234375 49.132812 C 145.234375 74.535156 124.636719 95.132812 99.234375 95.132812 C 73.828125 95.132812 53.234375 74.535156 53.234375 49.132812 C 53.234375 23.726562 73.828125 3.132812 99.234375 3.132812 C 124.636719 3.132812 145.234375 23.726562 145.234375 49.132812 Z M 145.234375 49.132812 "/>
<path style=" stroke:none;fill-rule:evenodd;fill:rgb(100%,100%,100%);fill-opacity:1;" d="M 148.5 48.5 C 148.5 73.628906 128.128906 94 103 94 C 77.871094 94 57.5 73.628906 57.5 48.5 C 57.5 23.371094 77.871094 3 103 3 C 128.128906 3 148.5 23.371094 148.5 48.5 Z M 148.5 48.5 "/>
<path style=" stroke:none;fill-rule:evenodd;fill:rgb(100%,100%,100%);fill-opacity:1;" d="M 151.835938 48.132812 C 151.835938 72.988281 131.6875 93.132812 106.835938 93.132812 C 81.984375 93.132812 61.835938 72.988281 61.835938 48.132812 C 61.835938 23.28125 81.984375 3.132812 106.835938 3.132812 C 131.6875 3.132812 151.835938 23.28125 151.835938 48.132812 Z M 151.835938 48.132812 "/>
<path style=" stroke:none;fill-rule:evenodd;fill:rgb(100%,100%,100%);fill-opacity:1;" d="M 155.222656 48.039062 C 155.222656 72.617188 135.300781 92.539062 110.722656 92.539062 C 86.148438 92.539062 66.222656 72.617188 66.222656 48.039062 C 66.222656 23.464844 86.148438 3.539062 110.722656 3.539062 C 135.300781 3.539062 155.222656 23.464844 155.222656 48.039062 Z M 155.222656 48.039062 "/>
<path style=" stroke:none;fill-rule:evenodd;fill:rgb(100%,100%,100%);fill-opacity:1;" d="M 158.644531 48.222656 C 158.644531 72.523438 138.945312 92.222656 114.644531 92.222656 C 90.34375 92.222656 70.644531 72.523438 70.644531 48.222656 C 70.644531 23.921875 90.34375 4.222656 114.644531 4.222656 C 138.945312 4.222656 158.644531 23.921875 158.644531 48.222656 Z M 158.644531 48.222656 "/>
<path style=" stroke:none;fill-rule:evenodd;fill:rgb(100%,100%,100%);fill-opacity:1;" d="M 162.074219 48.6875 C 162.074219 72.714844 142.597656 92.1875 118.574219 92.1875 C 94.550781 92.1875 75.074219 72.714844 75.074219 48.6875 C 75.074219 24.664062 94.550781 5.1875 118.574219 5.1875 C 142.597656 5.1875 162.074219 24.664062 162.074219 48.6875 Z M 162.074219 48.6875 "/>
<path style=" stroke:none;fill-rule:evenodd;fill:rgb(100%,100%,100%);fill-opacity:1;" d="M 165.496094 49.4375 C 165.496094 73.1875 146.242188 92.4375 122.496094 92.4375 C 98.746094 92.4375 79.496094 73.1875 79.496094 49.4375 C 79.496094 25.6875 98.746094 6.4375 122.496094 6.4375 C 146.242188 6.4375 165.496094 25.6875 165.496094 49.4375 Z M 165.496094 49.4375 "/>
<path style=" stroke:none;fill-rule:evenodd;fill:rgb(100%,100%,100%);fill-opacity:1;" d="M 168.886719 50.472656 C 168.886719 73.941406 149.859375 92.972656 126.386719 92.972656 C 102.914062 92.972656 83.886719 73.941406 83.886719 50.472656 C 83.886719 27 102.914062 7.972656 126.386719 7.972656 C 149.859375 7.972656 168.886719 27 168.886719 50.472656 Z M 168.886719 50.472656 "/>
<path style=" stroke:none;fill-rule:evenodd;fill:rgb(100%,100%,100%);fill-opacity:1;" d="M 172.230469 51.789062 C 172.230469 74.984375 153.425781 93.789062 130.230469 93.789062 C 107.035156 93.789062 88.230469 74.984375 88.230469 51.789062 C 88.230469 28.59375 107.035156 9.789062 130.230469 9.789062 C 153.425781 9.789062 172.230469 28.59375 172.230469 51.789062 Z M 172.230469 51.789062 "/>
<path style=" stroke:none;fill-rule:evenodd;fill:rgb(100%,100%,100%);fill-opacity:1;" d="M 175.5 53.390625 C 175.5 76.308594 156.921875 94.890625 134 94.890625 C 111.082031 94.890625 92.5 76.308594 92.5 53.390625 C 92.5 30.46875 111.082031 11.890625 134 11.890625 C 156.921875 11.890625 175.5 30.46875 175.5 53.390625 Z M 175.5 53.390625 "/>
<path style=" stroke:none;fill-rule:evenodd;fill:rgb(100%,100%,100%);fill-opacity:1;" d="M 178.679688 55.269531 C 178.679688 77.910156 160.324219 96.269531 137.679688 96.269531 C 115.035156 96.269531 96.679688 77.910156 96.679688 55.269531 C 96.679688 32.625 115.035156 14.269531 137.679688 14.269531 C 160.324219 14.269531 178.679688 32.625 178.679688 55.269531 Z M 178.679688 55.269531 "/>
<path style=" stroke:none;fill-rule:evenodd;fill:rgb(100%,100%,100%);fill-opacity:1;" d="M 181.746094 57.421875 C 181.746094 79.789062 163.613281 97.921875 141.246094 97.921875 C 118.878906 97.921875 100.746094 79.789062 100.746094 57.421875 C 100.746094 35.054688 118.878906 16.921875 141.246094 16.921875 C 163.613281 16.921875 181.746094 35.054688 181.746094 57.421875 Z M 181.746094 57.421875 "/>
<path style=" stroke:none;fill-rule:evenodd;fill:rgb(100%,100%,100%);fill-opacity:1;" d="M 184.679688 59.839844 C 184.679688 81.929688 166.769531 99.839844 144.679688 99.839844 C 122.589844 99.839844 104.679688 81.929688 104.679688 59.839844 C 104.679688 37.75 122.589844 19.839844 144.679688 19.839844 C 166.769531 19.839844 184.679688 37.75 184.679688 59.839844 Z M 184.679688 59.839844 "/>
<path style=" stroke:none;fill-rule:evenodd;fill:rgb(100%,100%,100%);fill-opacity:1;" d="M 187.460938 62.519531 C 187.460938 84.332031 169.777344 102.019531 147.960938 102.019531 C 126.144531 102.019531 108.460938 84.332031 108.460938 62.519531 C 108.460938 40.703125 126.144531 23.019531 147.960938 23.019531 C 169.777344 23.019531 187.460938 40.703125 187.460938 62.519531 Z M 187.460938 62.519531 "/>
<path style=" stroke:none;fill-rule:evenodd;fill:rgb(100%,100%,100%);fill-opacity:1;" d="M 190.070312 65.445312 C 190.070312 86.984375 172.609375 104.445312 151.070312 104.445312 C 129.53125 104.445312 112.070312 86.984375 112.070312 65.445312 C 112.070312 43.90625 129.53125 26.445312 151.070312 26.445312 C 172.609375 26.445312 190.070312 43.90625 190.070312 65.445312 Z M 190.070312 65.445312 "/>
<path style=" stroke:none;fill-rule:evenodd;fill:rgb(100%,100%,100%);fill-opacity:1;" d="M 192.484375 68.609375 C 192.484375 89.871094 175.25 107.109375 153.984375 107.109375 C 132.722656 107.109375 115.484375 89.871094 115.484375 68.609375 C 115.484375 47.347656 132.722656 30.109375 153.984375 30.109375 C 175.25 30.109375 192.484375 47.347656 192.484375 68.609375 Z M 192.484375 68.609375 "/>
<path style=" stroke:none;fill-rule:evenodd;fill:rgb(100%,100%,100%);fill-opacity:1;" d="M 194.695312 72 C 194.695312 92.988281 177.679688 110 156.695312 110 C 135.707031 110 118.695312 92.988281 118.695312 72 C 118.695312 51.011719 135.707031 34 156.695312 34 C 177.679688 34 194.695312 51.011719 194.695312 72 Z M 194.695312 72 "/>
<path style=" stroke:none;fill-rule:evenodd;fill:rgb(100%,100%,100%);fill-opacity:1;" d="M 196.675781 75.601562 C 196.675781 96.3125 179.886719 113.101562 159.175781 113.101562 C 138.464844 113.101562 121.675781 96.3125 121.675781 75.601562 C 121.675781 54.890625 138.464844 38.101562 159.175781 38.101562 C 179.886719 38.101562 196.675781 54.890625 196.675781 75.601562 Z M 196.675781 75.601562 "/>
<path style=" stroke:none;fill-rule:evenodd;fill:rgb(100%,100%,100%);fill-opacity:1;" d="M 198.414062 79.398438 C 198.414062 99.835938 181.847656 116.398438 161.414062 116.398438 C 140.976562 116.398438 124.414062 99.835938 124.414062 79.398438 C 124.414062 58.964844 140.976562 42.398438 161.414062 42.398438 C 181.847656 42.398438 198.414062 58.964844 198.414062 79.398438 Z M 198.414062 79.398438 "/>
<path style=" stroke:none;fill-rule:evenodd;fill:rgb(100%,100%,100%);fill-opacity:1;" d="M 199.890625 83.378906 C 199.890625 103.535156 183.550781 119.878906 163.390625 119.878906 C 143.234375 119.878906 126.890625 103.535156 126.890625 83.378906 C 126.890625 63.21875 143.234375 46.878906 163.390625 46.878906 C 183.550781 46.878906 199.890625 63.21875 199.890625 83.378906 Z M 199.890625 83.378906 "/>
<path style=" stroke:none;fill-rule:evenodd;fill:rgb(100%,100%,100%);fill-opacity:1;" d="M 201.097656 87.515625 C 201.097656 107.398438 184.980469 123.515625 165.097656 123.515625 C 145.214844 123.515625 129.097656 107.398438 129.097656 87.515625 C 129.097656 67.632812 145.214844 51.515625 165.097656 51.515625 C 184.980469 51.515625 201.097656 67.632812 201.097656 87.515625 Z M 201.097656 87.515625 "/>
<path style=" stroke:none;fill-rule:evenodd;fill:rgb(100%,100%,100%);fill-opacity:1;" d="M 202.019531 91.800781 C 202.019531 111.40625 186.125 127.300781 166.519531 127.300781 C 146.914062 127.300781 131.019531 111.40625 131.019531 91.800781 C 131.019531 72.195312 146.914062 56.300781 166.519531 56.300781 C 186.125 56.300781 202.019531 72.195312 202.019531 91.800781 Z M 202.019531 91.800781 "/>
<path style=" stroke:none;fill-rule:evenodd;fill:rgb(100%,100%,100%);fill-opacity:1;" d="M 202.644531 96.207031 C 202.644531 115.535156 186.972656 131.207031 167.644531 131.207031 C 148.3125 131.207031 132.644531 115.535156 132.644531 96.207031 C 132.644531 76.875 148.3125 61.207031 167.644531 61.207031 C 186.972656 61.207031 202.644531 76.875 202.644531 96.207031 Z M 202.644531 96.207031 "/>
<path style=" stroke:none;fill-rule:evenodd;fill:rgb(100%,100%,100%);fill-opacity:1;" d="M 202.960938 100.714844 C 202.960938 119.769531 187.515625 135.214844 168.460938 135.214844 C 149.40625 135.214844 133.960938 119.769531 133.960938 100.714844 C 133.960938 81.660156 149.40625 66.214844 168.460938 66.214844 C 187.515625 66.214844 202.960938 81.660156 202.960938 100.714844 Z M 202.960938 100.714844 "/>
<path style=" stroke:none;fill-rule:evenodd;fill:rgb(100%,100%,100%);fill-opacity:1;" d="M 202.960938 105.304688 C 202.960938 124.082031 187.738281 139.304688 168.960938 139.304688 C 150.183594 139.304688 134.960938 124.082031 134.960938 105.304688 C 134.960938 86.527344 150.183594 71.304688 168.960938 71.304688 C 187.738281 71.304688 202.960938 86.527344 202.960938 105.304688 Z M 202.960938 105.304688 "/>
<path style=" stroke:none;fill-rule:evenodd;fill:rgb(100%,100%,100%);fill-opacity:1;" d="M 202.636719 109.949219 C 202.636719 128.453125 187.636719 143.449219 169.136719 143.449219 C 150.632812 143.449219 135.636719 128.453125 135.636719 109.949219 C 135.636719 91.449219 150.632812 76.449219 169.136719 76.449219 C 187.636719 76.449219 202.636719 91.449219 202.636719 109.949219 Z M 202.636719 109.949219 "/>
<path style=" stroke:none;fill-rule:evenodd;fill:rgb(100%,100%,100%);fill-opacity:1;" d="M 201.980469 114.632812 C 201.980469 132.859375 187.207031 147.632812 168.980469 147.632812 C 150.757812 147.632812 135.980469 132.859375 135.980469 114.632812 C 135.980469 96.410156 150.757812 81.632812 168.980469 81.632812 C 187.207031 81.632812 201.980469 96.410156 201.980469 114.632812 Z M 201.980469 114.632812 "/>
<path style=" stroke:none;fill-rule:evenodd;fill:rgb(100%,100%,100%);fill-opacity:1;" d="M 200.996094 119.328125 C 200.996094 137.277344 186.445312 151.828125 168.496094 151.828125 C 150.546875 151.828125 135.996094 137.277344 135.996094 119.328125 C 135.996094 101.378906 150.546875 86.828125 168.496094 86.828125 C 186.445312 86.828125 200.996094 101.378906 200.996094 119.328125 Z M 200.996094 119.328125 "/>
<path style=" stroke:none;fill-rule:evenodd;fill:rgb(100%,100%,100%);fill-opacity:1;" d="M 199.671875 124.011719 C 199.671875 141.6875 185.34375 156.011719 167.671875 156.011719 C 150 156.011719 135.671875 141.6875 135.671875 124.011719 C 135.671875 106.339844 150 92.011719 167.671875 92.011719 C 185.34375 92.011719 199.671875 106.339844 199.671875 124.011719 Z M 199.671875 124.011719 "/>
<path style=" stroke:none;fill-rule:evenodd;fill:rgb(100%,100%,100%);fill-opacity:1;" d="M 198.011719 128.660156 C 198.011719 146.058594 183.910156 160.160156 166.511719 160.160156 C 149.113281 160.160156 135.011719 146.058594 135.011719 128.660156 C 135.011719 111.261719 149.113281 97.160156 166.511719 97.160156 C 183.910156 97.160156 198.011719 111.261719 198.011719 128.660156 Z M 198.011719 128.660156 "/>
<path style=" stroke:none;fill-rule:evenodd;fill:rgb(100%,100%,100%);fill-opacity:1;" d="M 196.015625 133.246094 C 196.015625 150.367188 182.136719 164.246094 165.015625 164.246094 C 147.894531 164.246094 134.015625 150.367188 134.015625 133.246094 C 134.015625 116.125 147.894531 102.246094 165.015625 102.246094 C 182.136719 102.246094 196.015625 116.125 196.015625 133.246094 Z M 196.015625 133.246094 "/>
<path style=" stroke:none;fill-rule:evenodd;fill:rgb(100%,100%,100%);fill-opacity:1;" d="M 193.6875 137.75 C 193.6875 154.59375 180.035156 168.25 163.1875 168.25 C 146.34375 168.25 132.6875 154.59375 132.6875 137.75 C 132.6875 120.90625 146.34375 107.25 163.1875 107.25 C 180.035156 107.25 193.6875 120.90625 193.6875 137.75 Z M 193.6875 137.75 "/>
<path style=" stroke:none;fill-rule:evenodd;fill:rgb(100%,100%,100%);fill-opacity:1;" d="M 191.03125 142.144531 C 191.03125 158.710938 177.601562 172.144531 161.03125 172.144531 C 144.464844 172.144531 131.03125 158.710938 131.03125 142.144531 C 131.03125 125.574219 144.464844 112.144531 161.03125 112.144531 C 177.601562 112.144531 191.03125 125.574219 191.03125 142.144531 Z M 191.03125 142.144531 "/>
<path style=" stroke:none;fill-rule:evenodd;fill:rgb(100%,100%,100%);fill-opacity:1;" d="M 188.054688 146.402344 C 188.054688 162.695312 174.847656 175.902344 158.554688 175.902344 C 142.261719 175.902344 129.054688 162.695312 129.054688 146.402344 C 129.054688 130.113281 142.261719 116.902344 158.554688 116.902344 C 174.847656 116.902344 188.054688 130.113281 188.054688 146.402344 Z M 188.054688 146.402344 "/>
<path style=" stroke:none;fill-rule:evenodd;fill:rgb(100%,100%,100%);fill-opacity:1;" d="M 184.761719 150.507812 C 184.761719 166.523438 171.78125 179.507812 155.761719 179.507812 C 139.746094 179.507812 126.761719 166.523438 126.761719 150.507812 C 126.761719 134.492188 139.746094 121.507812 155.761719 121.507812 C 171.78125 121.507812 184.761719 134.492188 184.761719 150.507812 Z M 184.761719 150.507812 "/>
<path style=" stroke:none;fill-rule:evenodd;fill:rgb(100%,100%,100%);fill-opacity:1;" d="M 181.167969 154.433594 C 181.167969 170.171875 168.40625 182.933594 152.667969 182.933594 C 136.929688 182.933594 124.167969 170.171875 124.167969 154.433594 C 124.167969 138.691406 136.929688 125.933594 152.667969 125.933594 C 168.40625 125.933594 181.167969 138.691406 181.167969 154.433594 Z M 181.167969 154.433594 "/>
<path style=" stroke:none;fill-rule:evenodd;fill:rgb(100%,100%,100%);fill-opacity:1;" d="M 177.28125 158.15625 C 177.28125 173.621094 164.746094 186.15625 149.28125 186.15625 C 133.816406 186.15625 121.28125 173.621094 121.28125 158.15625 C 121.28125 142.691406 133.816406 130.15625 149.28125 130.15625 C 164.746094 130.15625 177.28125 142.691406 177.28125 158.15625 Z M 177.28125 158.15625 "/>
<path style=" stroke:none;fill-rule:evenodd;fill:rgb(100%,100%,100%);fill-opacity:1;" d="M 173.113281 161.652344 C 173.113281 176.839844 160.800781 189.152344 145.613281 189.152344 C 130.425781 189.152344 118.113281 176.839844 118.113281 161.652344 C 118.113281 146.464844 130.425781 134.152344 145.613281 134.152344 C 160.800781 134.152344 173.113281 146.464844 173.113281 161.652344 Z M 173.113281 161.652344 "/>
<path style=" stroke:none;fill-rule:evenodd;fill:rgb(100%,100%,100%);fill-opacity:1;" d="M 168.683594 164.90625 C 168.683594 179.820312 156.597656 191.90625 141.683594 191.90625 C 126.773438 191.90625 114.683594 179.820312 114.683594 164.90625 C 114.683594 149.996094 126.773438 137.90625 141.683594 137.90625 C 156.597656 137.90625 168.683594 149.996094 168.683594 164.90625 Z M 168.683594 164.90625 "/>
<path style=" stroke:none;fill-rule:evenodd;fill:rgb(100%,100%,100%);fill-opacity:1;" d="M 164.007812 167.898438 C 164.007812 182.53125 152.140625 194.398438 137.507812 194.398438 C 122.871094 194.398438 111.007812 182.53125 111.007812 167.898438 C 111.007812 153.261719 122.871094 141.398438 137.507812 141.398438 C 152.140625 141.398438 164.007812 153.261719 164.007812 167.898438 Z M 164.007812 167.898438 "/>
<path style=" stroke:none;fill-rule:evenodd;fill:rgb(100%,100%,100%);fill-opacity:1;" d="M 159.097656 170.601562 C 159.097656 184.960938 147.457031 196.601562 133.097656 196.601562 C 118.738281 196.601562 107.097656 184.960938 107.097656 170.601562 C 107.097656 156.242188 118.738281 144.601562 133.097656 144.601562 C 147.457031 144.601562 159.097656 156.242188 159.097656 170.601562 Z M 159.097656 170.601562 "/>
<path style=" stroke:none;fill-rule:evenodd;fill:rgb(100%,100%,100%);fill-opacity:1;" d="M 153.980469 173.007812 C 153.980469 187.089844 142.5625 198.507812 128.480469 198.507812 C 114.398438 198.507812 102.980469 187.089844 102.980469 173.007812 C 102.980469 158.925781 114.398438 147.507812 128.480469 147.507812 C 142.5625 147.507812 153.980469 158.925781 153.980469 173.007812 Z M 153.980469 173.007812 "/>
<path style=" stroke:none;fill-rule:evenodd;fill:rgb(100%,100%,100%);fill-opacity:1;" d="M 148.671875 175.09375 C 148.671875 188.902344 137.480469 200.09375 123.671875 200.09375 C 109.867188 200.09375 98.671875 188.902344 98.671875 175.09375 C 98.671875 161.289062 109.867188 150.09375 123.671875 150.09375 C 137.480469 150.09375 148.671875 161.289062 148.671875 175.09375 Z M 148.671875 175.09375 "/>
<path style=" stroke:none;fill-rule:evenodd;fill:rgb(100%,100%,100%);fill-opacity:1;" d="M 143.199219 176.851562 C 143.199219 190.382812 132.226562 201.351562 118.699219 201.351562 C 105.167969 201.351562 94.199219 190.382812 94.199219 176.851562 C 94.199219 163.320312 105.167969 152.351562 118.699219 152.351562 C 132.226562 152.351562 143.199219 163.320312 143.199219 176.851562 Z M 143.199219 176.851562 "/>
<path style=" stroke:none;fill-rule:evenodd;fill:rgb(100%,100%,100%);fill-opacity:1;" d="M 137.578125 178.261719 C 137.578125 191.515625 126.832031 202.261719 113.578125 202.261719 C 100.324219 202.261719 89.578125 191.515625 89.578125 178.261719 C 89.578125 165.003906 100.324219 154.261719 113.578125 154.261719 C 126.832031 154.261719 137.578125 165.003906 137.578125 178.261719 Z M 137.578125 178.261719 "/>
<path style=" stroke:none;fill-rule:evenodd;fill:rgb(100%,100%,100%);fill-opacity:1;" d="M 131.835938 179.3125 C 131.835938 192.292969 121.316406 202.8125 108.335938 202.8125 C 95.359375 202.8125 84.835938 192.292969 84.835938 179.3125 C 84.835938 166.335938 95.359375 155.8125 108.335938 155.8125 C 121.316406 155.8125 131.835938 166.335938 131.835938 179.3125 Z M 131.835938 179.3125 "/>
<path style=" stroke:none;fill-rule:evenodd;fill:rgb(100%,100%,100%);fill-opacity:1;" d="M 126 180 C 126 192.703125 115.703125 203 103 203 C 90.296875 203 80 192.703125 80 180 C 80 167.296875 90.296875 157 103 157 C 115.703125 157 126 167.296875 126 180 Z M 126 180 "/>
<path style=" stroke:none;fill-rule:evenodd;fill:rgb(100%,100%,100%);fill-opacity:1;" d="M 120.09375 180.3125 C 120.09375 192.738281 110.019531 202.8125 97.59375 202.8125 C 85.167969 202.8125 75.09375 192.738281 75.09375 180.3125 C 75.09375 167.886719 85.167969 157.8125 97.59375 157.8125 C 110.019531 157.8125 120.09375 167.886719 120.09375 180.3125 Z M 120.09375 180.3125 "/>
<path style=" stroke:none;fill-rule:evenodd;fill:rgb(100%,100%,100%);fill-opacity:1;" d="M 114.144531 180.242188 C 114.144531 192.390625 104.292969 202.242188 92.144531 202.242188 C 79.996094 202.242188 70.144531 192.390625 70.144531 180.242188 C 70.144531 168.089844 79.996094 158.242188 92.144531 158.242188 C 104.292969 158.242188 114.144531 168.089844 114.144531 180.242188 Z M 114.144531 180.242188 "/>
<path style=" stroke:none;fill-rule:evenodd;fill:rgb(100%,100%,100%);fill-opacity:1;" d="M 108.179688 179.785156 C 108.179688 191.660156 98.554688 201.285156 86.679688 201.285156 C 74.804688 201.285156 65.179688 191.660156 65.179688 179.785156 C 65.179688 167.910156 74.804688 158.285156 86.679688 158.285156 C 98.554688 158.285156 108.179688 167.910156 108.179688 179.785156 Z M 108.179688 179.785156 "/>
<path style=" stroke:none;fill-rule:evenodd;fill:rgb(100%,100%,100%);fill-opacity:1;" d="M 102.226562 178.941406 C 102.226562 190.539062 92.824219 199.941406 81.226562 199.941406 C 69.625 199.941406 60.226562 190.539062 60.226562 178.941406 C 60.226562 167.339844 69.625 157.941406 81.226562 157.941406 C 92.824219 157.941406 102.226562 167.339844 102.226562 178.941406 Z M 102.226562 178.941406 "/>
<path style=" stroke:none;fill-rule:evenodd;fill:rgb(100%,100%,100%);fill-opacity:1;" d="M 96.308594 177.707031 C 96.308594 189.027344 87.132812 198.207031 75.808594 198.207031 C 64.488281 198.207031 55.308594 189.027344 55.308594 177.707031 C 55.308594 166.382812 64.488281 157.207031 75.808594 157.207031 C 87.132812 157.207031 96.308594 166.382812 96.308594 177.707031 Z M 96.308594 177.707031 "/>
<path style=" stroke:none;fill-rule:evenodd;fill:rgb(100%,100%,100%);fill-opacity:1;" d="M 90.460938 176.082031 C 90.460938 187.128906 81.507812 196.082031 70.460938 196.082031 C 59.414062 196.082031 50.460938 187.128906 50.460938 176.082031 C 50.460938 165.039062 59.414062 156.082031 70.460938 156.082031 C 81.507812 156.082031 90.460938 165.039062 90.460938 176.082031 Z M 90.460938 176.082031 "/>
<path style=" stroke:none;fill-rule:evenodd;fill:rgb(100%,100%,100%);fill-opacity:1;" d="M 84.707031 174.078125 C 84.707031 184.847656 75.976562 193.578125 65.207031 193.578125 C 54.4375 193.578125 45.707031 184.847656 45.707031 174.078125 C 45.707031 163.308594 54.4375 154.578125 65.207031 154.578125 C 75.976562 154.578125 84.707031 163.308594 84.707031 174.078125 Z M 84.707031 174.078125 "/>
<path style=" stroke:none;fill-rule:evenodd;fill:rgb(100%,100%,100%);fill-opacity:1;" d="M 79.078125 171.691406 C 79.078125 182.183594 70.570312 190.691406 60.078125 190.691406 C 49.582031 190.691406 41.078125 182.183594 41.078125 171.691406 C 41.078125 161.199219 49.582031 152.691406 60.078125 152.691406 C 70.570312 152.691406 79.078125 161.199219 79.078125 171.691406 Z M 79.078125 171.691406 "/>
<path style=" stroke:none;fill-rule:evenodd;fill:rgb(100%,100%,100%);fill-opacity:1;" d="M 73.59375 168.933594 C 73.59375 179.152344 65.3125 187.433594 55.09375 187.433594 C 44.878906 187.433594 36.59375 179.152344 36.59375 168.933594 C 36.59375 158.71875 44.878906 150.433594 55.09375 150.433594 C 65.3125 150.433594 73.59375 158.71875 73.59375 168.933594 Z M 73.59375 168.933594 "/>
<path style=" stroke:none;fill-rule:evenodd;fill:rgb(100%,100%,100%);fill-opacity:1;" d="M 68.292969 165.816406 C 68.292969 175.757812 60.234375 183.816406 50.292969 183.816406 C 40.351562 183.816406 32.292969 175.757812 32.292969 165.816406 C 32.292969 155.875 40.351562 147.816406 50.292969 147.816406 C 60.234375 147.816406 68.292969 155.875 68.292969 165.816406 Z M 68.292969 165.816406 "/>
<path style=" stroke:none;fill-rule:evenodd;fill:rgb(100%,100%,100%);fill-opacity:1;" d="M 63.191406 162.34375 C 63.191406 172.011719 55.355469 179.84375 45.691406 179.84375 C 36.027344 179.84375 28.191406 172.011719 28.191406 162.34375 C 28.191406 152.679688 36.027344 144.84375 45.691406 144.84375 C 55.355469 144.84375 63.191406 152.679688 63.191406 162.34375 Z M 63.191406 162.34375 "/>
<path style=" stroke:none;fill-rule:evenodd;fill:rgb(100%,100%,100%);fill-opacity:1;" d="M 58.320312 158.539062 C 58.320312 167.925781 50.707031 175.539062 41.320312 175.539062 C 31.929688 175.539062 24.320312 167.925781 24.320312 158.539062 C 24.320312 149.148438 31.929688 141.539062 41.320312 141.539062 C 50.707031 141.539062 58.320312 149.148438 58.320312 158.539062 Z M 58.320312 158.539062 "/>
<path style=" stroke:none;fill-rule:evenodd;fill:rgb(100%,100%,100%);fill-opacity:1;" d="M 53.699219 154.40625 C 53.699219 163.519531 46.3125 170.90625 37.199219 170.90625 C 28.089844 170.90625 20.699219 163.519531 20.699219 154.40625 C 20.699219 145.296875 28.089844 137.90625 37.199219 137.90625 C 46.3125 137.90625 53.699219 145.296875 53.699219 154.40625 Z M 53.699219 154.40625 "/>
<path style=" stroke:none;fill-rule:evenodd;fill:rgb(100%,100%,100%);fill-opacity:1;" d="M 49.359375 149.972656 C 49.359375 158.808594 42.199219 165.972656 33.359375 165.972656 C 24.523438 165.972656 17.359375 158.808594 17.359375 149.972656 C 17.359375 141.136719 24.523438 133.972656 33.359375 133.972656 C 42.199219 133.972656 49.359375 141.136719 49.359375 149.972656 Z M 49.359375 149.972656 "/>
<path style=" stroke:none;fill-rule:evenodd;fill:rgb(100%,100%,100%);fill-opacity:1;" d="M 45.320312 145.25 C 45.320312 153.808594 38.382812 160.75 29.820312 160.75 C 21.261719 160.75 14.320312 153.808594 14.320312 145.25 C 14.320312 136.691406 21.261719 129.75 29.820312 129.75 C 38.382812 129.75 45.320312 136.691406 45.320312 145.25 Z M 45.320312 145.25 "/>
<path style=" stroke:none;fill-rule:evenodd;fill:rgb(100%,100%,100%);fill-opacity:1;" d="M 41.601562 140.261719 C 41.601562 148.546875 34.886719 155.261719 26.601562 155.261719 C 18.316406 155.261719 11.601562 148.546875 11.601562 140.261719 C 11.601562 131.976562 18.316406 125.261719 26.601562 125.261719 C 34.886719 125.261719 41.601562 131.976562 41.601562 140.261719 Z M 41.601562 140.261719 "/>
<path style=" stroke:none;fill-rule:evenodd;fill:rgb(100%,100%,100%);fill-opacity:1;" d="M 38.226562 135.027344 C 38.226562 143.035156 31.734375 149.527344 23.726562 149.527344 C 15.71875 149.527344 9.226562 143.035156 9.226562 135.027344 C 9.226562 127.019531 15.71875 120.527344 23.726562 120.527344 C 31.734375 120.527344 38.226562 127.019531 38.226562 135.027344 Z M 38.226562 135.027344 "/>
<path style=" stroke:none;fill-rule:evenodd;fill:rgb(100%,100%,100%);fill-opacity:1;" d="M 35.210938 129.574219 C 35.210938 137.308594 28.941406 143.574219 21.210938 143.574219 C 13.476562 143.574219 7.210938 137.308594 7.210938 129.574219 C 7.210938 121.84375 13.476562 115.574219 21.210938 115.574219 C 28.941406 115.574219 35.210938 121.84375 35.210938 129.574219 Z M 35.210938 129.574219 "/>
<path style=" stroke:none;fill-rule:evenodd;fill:rgb(100%,100%,100%);fill-opacity:1;" d="M 32.570312 123.925781 C 32.570312 131.382812 26.523438 137.425781 19.070312 137.425781 C 11.613281 137.425781 5.570312 131.382812 5.570312 123.925781 C 5.570312 116.46875 11.613281 110.425781 19.070312 110.425781 C 26.523438 110.425781 32.570312 116.46875 32.570312 123.925781 Z M 32.570312 123.925781 "/>
<path style=" stroke:none;fill-rule:evenodd;fill:rgb(100%,100%,100%);fill-opacity:1;" d="M 30.320312 118.105469 C 30.320312 125.285156 24.5 131.105469 17.320312 131.105469 C 10.140625 131.105469 4.320312 125.285156 4.320312 118.105469 C 4.320312 110.925781 10.140625 105.105469 17.320312 105.105469 C 24.5 105.105469 30.320312 110.925781 30.320312 118.105469 Z M 30.320312 118.105469 "/>
<path style=" stroke:none;fill-rule:evenodd;fill:rgb(100%,100%,100%);fill-opacity:1;" d="M 28.480469 112.144531 C 28.480469 119.050781 22.882812 124.644531 15.980469 124.644531 C 9.074219 124.644531 3.480469 119.050781 3.480469 112.144531 C 3.480469 105.242188 9.074219 99.644531 15.980469 99.644531 C 22.882812 99.644531 28.480469 105.242188 28.480469 112.144531 Z M 28.480469 112.144531 "/>
<path style=" stroke:none;fill-rule:evenodd;fill:rgb(100%,100%,100%);fill-opacity:1;" d="M 27.054688 106.070312 C 27.054688 112.699219 21.679688 118.070312 15.054688 118.070312 C 8.425781 118.070312 3.054688 112.699219 3.054688 106.070312 C 3.054688 99.445312 8.425781 94.070312 15.054688 94.070312 C 21.679688 94.070312 27.054688 99.445312 27.054688 106.070312 Z M 27.054688 106.070312 "/>
<path style=" stroke:none;fill-rule:evenodd;fill:rgb(100%,100%,100%);fill-opacity:1;" d="M 26.054688 99.910156 C 26.054688 106.261719 20.90625 111.410156 14.554688 111.410156 C 8.203125 111.410156 3.054688 106.261719 3.054688 99.910156 C 3.054688 93.558594 8.203125 88.410156 14.554688 88.410156 C 20.90625 88.410156 26.054688 93.558594 26.054688 99.910156 Z M 26.054688 99.910156 "/>
<path style=" stroke:none;fill-rule:evenodd;fill:rgb(100%,100%,100%);fill-opacity:1;" d="M 25.488281 93.695312 C 25.488281 99.773438 20.5625 104.695312 14.488281 104.695312 C 8.414062 104.695312 3.488281 99.773438 3.488281 93.695312 C 3.488281 87.621094 8.414062 82.695312 14.488281 82.695312 C 20.5625 82.695312 25.488281 87.621094 25.488281 93.695312 Z M 25.488281 93.695312 "/>
<path style=" stroke:none;fill-rule:evenodd;fill:rgb(100%,100%,100%);fill-opacity:1;" d="M 25.359375 87.457031 C 25.359375 93.257812 20.660156 97.957031 14.859375 97.957031 C 9.0625 97.957031 4.359375 93.257812 4.359375 87.457031 C 4.359375 81.660156 9.0625 76.957031 14.859375 76.957031 C 20.660156 76.957031 25.359375 81.660156 25.359375 87.457031 Z M 25.359375 87.457031 "/>
<path style=" stroke:none;fill-rule:evenodd;fill:rgb(100%,100%,100%);fill-opacity:1;" d="M 25.671875 81.226562 C 25.671875 86.75 21.195312 91.226562 15.671875 91.226562 C 10.152344 91.226562 5.671875 86.75 5.671875 81.226562 C 5.671875 75.703125 10.152344 71.226562 15.671875 71.226562 C 21.195312 71.226562 25.671875 75.703125 25.671875 81.226562 Z M 25.671875 81.226562 "/>
<path style=" stroke:none;fill-rule:evenodd;fill:rgb(100%,100%,100%);fill-opacity:1;" d="M 26.429688 75.035156 C 26.429688 80.28125 22.175781 84.535156 16.929688 84.535156 C 11.683594 84.535156 7.429688 80.28125 7.429688 75.035156 C 7.429688 69.789062 11.683594 65.535156 16.929688 65.535156 C 22.175781 65.535156 26.429688 69.789062 26.429688 75.035156 Z M 26.429688 75.035156 "/>
<path style=" stroke:none;fill-rule:evenodd;fill:rgb(100%,100%,100%);fill-opacity:1;" d="M 27.625 68.910156 C 27.625 73.882812 23.597656 77.910156 18.625 77.910156 C 13.65625 77.910156 9.625 73.882812 9.625 68.910156 C 9.625 63.941406 13.65625 59.910156 18.625 59.910156 C 23.597656 59.910156 27.625 63.941406 27.625 68.910156 Z M 27.625 68.910156 "/>
<path style=" stroke:none;fill-rule:evenodd;fill:rgb(100%,100%,100%);fill-opacity:1;" d="M 29.261719 62.890625 C 29.261719 67.582031 25.453125 71.390625 20.761719 71.390625 C 16.066406 71.390625 12.261719 67.582031 12.261719 62.890625 C 12.261719 58.195312 16.066406 54.390625 20.761719 54.390625 C 25.453125 54.390625 29.261719 58.195312 29.261719 62.890625 Z M 29.261719 62.890625 "/>
<path style=" stroke:none;fill-rule:evenodd;fill:rgb(100%,100%,100%);fill-opacity:1;" d="M 31.324219 57 C 31.324219 61.417969 27.742188 65 23.324219 65 C 18.90625 65 15.324219 61.417969 15.324219 57 C 15.324219 52.582031 18.90625 49 23.324219 49 C 27.742188 49 31.324219 52.582031 31.324219 57 Z M 31.324219 57 "/>
<path style=" stroke:none;fill-rule:evenodd;fill:rgb(100%,100%,100%);fill-opacity:1;" d="M 33.8125 51.273438 C 33.8125 55.417969 30.457031 58.773438 26.3125 58.773438 C 22.171875 58.773438 18.8125 55.417969 18.8125 51.273438 C 18.8125 47.132812 22.171875 43.773438 26.3125 43.773438 C 30.457031 43.773438 33.8125 47.132812 33.8125 51.273438 Z M 33.8125 51.273438 "/>
<path style=" stroke:none;fill-rule:evenodd;fill:rgb(100%,100%,100%);fill-opacity:1;" d="M 36.714844 45.742188 C 36.714844 49.609375 33.582031 52.742188 29.714844 52.742188 C 25.847656 52.742188 22.714844 49.609375 22.714844 45.742188 C 22.714844 41.878906 25.847656 38.742188 29.714844 38.742188 C 33.582031 38.742188 36.714844 41.878906 36.714844 45.742188 Z M 36.714844 45.742188 "/>
<path style=" stroke:none;fill-rule:evenodd;fill:rgb(100%,100%,100%);fill-opacity:1;" d="M 40.015625 40.4375 C 40.015625 44.027344 37.105469 46.9375 33.515625 46.9375 C 29.925781 46.9375 27.015625 44.027344 27.015625 40.4375 C 27.015625 36.847656 29.925781 33.9375 33.515625 33.9375 C 37.105469 33.9375 40.015625 36.847656 40.015625 40.4375 Z M 40.015625 40.4375 "/>
<path style=" stroke:none;fill-rule:evenodd;fill:rgb(100%,100%,100%);fill-opacity:1;" d="M 43.703125 35.382812 C 43.703125 38.695312 41.015625 41.382812 37.703125 41.382812 C 34.386719 41.382812 31.703125 38.695312 31.703125 35.382812 C 31.703125 32.066406 34.386719 29.382812 37.703125 29.382812 C 41.015625 29.382812 43.703125 32.066406 43.703125 35.382812 Z M 43.703125 35.382812 "/>
<path style=" stroke:none;fill-rule:evenodd;fill:rgb(100%,100%,100%);fill-opacity:1;" d="M 47.757812 30.609375 C 47.757812 33.644531 45.292969 36.109375 42.257812 36.109375 C 39.21875 36.109375 36.757812 33.644531 36.757812 30.609375 C 36.757812 27.570312 39.21875 25.109375 42.257812 25.109375 C 45.292969 25.109375 47.757812 27.570312 47.757812 30.609375 Z M 47.757812 30.609375 "/>
<path style=" stroke:none;fill-rule:evenodd;fill:rgb(100%,100%,100%);fill-opacity:1;" d="M 52.160156 26.144531 C 52.160156 28.90625 49.921875 31.144531 47.160156 31.144531 C 44.398438 31.144531 42.160156 28.90625 42.160156 26.144531 C 42.160156 23.382812 44.398438 21.144531 47.160156 21.144531 C 49.921875 21.144531 52.160156 23.382812 52.160156 26.144531 Z M 52.160156 26.144531 "/>
<path style=" stroke:none;fill-rule:evenodd;fill:rgb(100%,100%,100%);fill-opacity:1;" d="M 56.894531 22.011719 C 56.894531 24.496094 54.878906 26.511719 52.394531 26.511719 C 49.90625 26.511719 47.894531 24.496094 47.894531 22.011719 C 47.894531 19.527344 49.90625 17.511719 52.394531 17.511719 C 54.878906 17.511719 56.894531 19.527344 56.894531 22.011719 Z M 56.894531 22.011719 "/>
<path style=" stroke:none;fill-rule:evenodd;fill:rgb(100%,100%,100%);fill-opacity:1;" d="M 61.929688 18.238281 C 61.929688 20.445312 60.140625 22.238281 57.929688 22.238281 C 55.722656 22.238281 53.929688 20.445312 53.929688 18.238281 C 53.929688 16.027344 55.722656 14.238281 57.929688 14.238281 C 60.140625 14.238281 61.929688 16.027344 61.929688 18.238281 Z M 61.929688 18.238281 "/>
<path style=" stroke:none;fill-rule:evenodd;fill:rgb(100%,100%,100%);fill-opacity:1;" d="M 67.25 14.84375 C 67.25 16.777344 65.683594 18.34375 63.75 18.34375 C 61.816406 18.34375 60.25 16.777344 60.25 14.84375 C 60.25 12.910156 61.816406 11.34375 63.75 11.34375 C 65.683594 11.34375 67.25 12.910156 67.25 14.84375 Z M 67.25 14.84375 "/>
<path style=" stroke:none;fill-rule:evenodd;fill:rgb(100%,100%,100%);fill-opacity:1;" d="M 72.824219 11.851562 C 72.824219 13.507812 71.480469 14.851562 69.824219 14.851562 C 68.167969 14.851562 66.824219 13.507812 66.824219 11.851562 C 66.824219 10.191406 68.167969 8.851562 69.824219 8.851562 C 71.480469 8.851562 72.824219 10.191406 72.824219 11.851562 Z M 72.824219 11.851562 "/>
<path style=" stroke:none;fill-rule:evenodd;fill:rgb(100%,100%,100%);fill-opacity:1;" d="M 78.625 9.277344 C 78.625 10.65625 77.507812 11.777344 76.125 11.777344 C 74.746094 11.777344 73.625 10.65625 73.625 9.277344 C 73.625 7.894531 74.746094 6.777344 76.125 6.777344 C 77.507812 6.777344 78.625 7.894531 78.625 9.277344 Z M 78.625 9.277344 "/>
<path style=" stroke:none;fill-rule:evenodd;fill:rgb(100%,100%,100%);fill-opacity:1;" d="M 84.625 7.140625 C 84.625 8.246094 83.730469 9.140625 82.625 9.140625 C 81.519531 9.140625 80.625 8.246094 80.625 7.140625 C 80.625 6.035156 81.519531 5.140625 82.625 5.140625 C 83.730469 5.140625 84.625 6.035156 84.625 7.140625 Z M 84.625 7.140625 "/>
<path style=" stroke:none;fill-rule:evenodd;fill:rgb(100%,100%,100%);fill-opacity:1;" d="M 90.792969 5.457031 C 90.792969 6.285156 90.121094 6.957031 89.292969 6.957031 C 88.464844 6.957031 87.792969 6.285156 87.792969 5.457031 C 87.792969 4.628906 88.464844 3.957031 89.292969 3.957031 C 90.121094 3.957031 90.792969 4.628906 90.792969 5.457031 Z M 90.792969 5.457031 "/>
<path style=" stroke:none;fill-rule:evenodd;fill:rgb(100%,100%,100%);fill-opacity:1;" d="M 97.09375 4.242188 C 97.09375 4.792969 96.644531 5.242188 96.09375 5.242188 C 95.542969 5.242188 95.09375 4.792969 95.09375 4.242188 C 95.09375 3.6875 95.542969 3.242188 96.09375 3.242188 C 96.644531 3.242188 97.09375 3.6875 97.09375 4.242188 Z M 97.09375 4.242188 "/>
<path style=" stroke:none;fill-rule:evenodd;fill:rgb(100%,100%,100%);fill-opacity:1;" d="M 103.5 3.5 C 103.5 3.777344 103.277344 4 103 4 C 102.722656 4 102.5 3.777344 102.5 3.5 C 102.5 3.222656 102.722656 3 103 3 C 103.277344 3 103.5 3.222656 103.5 3.5 Z M 103.5 3.5 "/>
</g>
</svg>
