<?xml version="1.0" encoding="UTF-8"?>
<svg xmlns="http://www.w3.org/2000/svg" xmlns:xlink="http://www.w3.org/1999/xlink" width="143" height="143" viewBox="0 0 143 143" version="1.1">
<g id="surface1227">
<path style=" stroke:none;fill-rule:evenodd;fill:rgb(39.215686%,58.431373%,92.941176%);fill-opacity:1;" d="M 139.273438 109.273438 C 139.273438 125.84375 125.84375 139.273438 109.273438 139.273438 C 92.707031 139.273438 79.273438 125.84375 79.273438 109.273438 C 79.273438 92.707031 92.707031 79.273438 109.273438 79.273438 C 125.84375 79.273438 139.273438 92.707031 139.273438 109.273438 Z M 139.273438 109.273438 "/>
<path style=" stroke:none;fill-rule:nonzero;fill:rgb(14.117647%,14.117647%,54.901961%);fill-opacity:1;" d="M 56.136719 129.273438 C 56.136719 129.273438 111.339844 111.339844 111.339844 111.339844 C 111.339844 111.339844 129.273438 56.136719 129.273438 56.136719 C 129.273438 56.136719 95.160156 9.179688 95.160156 9.179688 C 95.160156 9.179688 37.117188 9.179688 37.117188 9.179688 C 37.117188 9.179688 3 56.136719 3 56.136719 C 3 56.136719 20.9375 111.339844 20.9375 111.339844 C 20.9375 111.339844 76.136719 129.273438 76.136719 129.273438 C 76.136719 129.273438 123.09375 95.160156 123.09375 95.160156 C 123.09375 95.160156 123.09375 37.117188 123.09375 37.117188 C 123.09375 37.117188 76.136719 3 76.136719 3 C 76.136719 3 20.9375 20.9375 20.9375 20.9375 C 20.9375 20.9375 3 76.136719 3 76.136719 C 3 76.136719 37.117188 123.09375 37.117188 123.09375 C 37.117188 123.09375 95.160156 123.09375 95.160156 123.09375 C 95.160156 123.09375 129.273438 76.136719 129.273438 76.136719 C 129.273438 76.136719 111.339844 20.9375 111.339844 20.9375 C 111.339844 20.9375 56.136719 3 56.136719 3 C 56.136719 3 9.179688 37.117188 9.179688 37.117188 C 9.179688 37.117188 9.179688 95.160156 9.179688 95.160156 C 9.179688 95.160156 56.136719 129.273438 56.136719 129.273438 Z M 56.136719 129.273438 "/>
</g>
</svg>
