<?xml version="1.0" encoding="UTF-8"?>
<svg xmlns="http://www.w3.org/2000/svg" xmlns:xlink="http://www.w3.org/1999/xlink" width="177" height="177" viewBox="0 0 177 177" version="1.1">
<g id="surface1317">
<path style=" stroke:none;fill-rule:nonzero;fill:rgb(14.117647%,14.117647%,54.901961%);fill-opacity:1;" d="M 87.851562 3 C 87.851562 3 172.707031 87.851562 172.707031 87.851562 C 172.707031 87.851562 87.851562 172.707031 87.851562 172.707031 C 87.851562 172.707031 3 87.851562 3 87.851562 C 3 87.851562 87.851562 3 87.851562 3 Z M 87.851562 3 "/>
<path style=" stroke:none;fill-rule:nonzero;fill:rgb(39.215686%,58.431373%,92.941176%);fill-opacity:1;" d="M 44.132812 88.550781 C 44.132812 88.550781 89.265625 59.546875 89.265625 59.546875 C 89.265625 59.546875 54.132812 19 54.132812 19 C 54.132812 19 19 59.546875 19 59.546875 C 19 59.546875 64.132812 88.550781 64.132812 88.550781 C 64.132812 88.550781 86.421875 39.75 86.421875 39.75 C 86.421875 39.75 34.945312 24.632812 34.945312 24.632812 C 34.945312 24.632812 27.308594 77.738281 27.308594 77.738281 C 27.308594 77.738281 80.957031 77.738281 80.957031 77.738281 C 80.957031 77.738281 73.324219 24.632812 73.324219 24.632812 C 73.324219 24.632812 21.847656 39.75 21.847656 39.75 C 21.847656 39.75 44.132812 88.550781 44.132812 88.550781 Z M 44.132812 88.550781 "/>
<path style=" stroke:none;fill-rule:nonzero;fill:rgb(39.215686%,58.431373%,92.941176%);fill-opacity:1;" d="M 111.570312 88.550781 C 111.570312 88.550781 156.707031 59.546875 156.707031 59.546875 C 156.707031 59.546875 121.570312 19 121.570312 19 C 121.570312 19 86.4375 59.546875 86.4375 59.546875 C 86.4375 59.546875 131.570312 88.550781 131.570312 88.550781 C 131.570312 88.550781 153.859375 39.75 153.859375 39.75 C 153.859375 39.75 102.382812 24.632812 102.382812 24.632812 C 102.382812 24.632812 94.746094 77.738281 94.746094 77.738281 C 94.746094 77.738281 148.398438 77.738281 148.398438 77.738281 C 148.398438 77.738281 140.761719 24.632812 140.761719 24.632812 C 140.761719 24.632812 89.285156 39.75 89.285156 39.75 C 89.285156 39.75 111.570312 88.550781 111.570312 88.550781 Z M 111.570312 88.550781 "/>
<path style=" stroke:none;fill-rule:nonzero;fill:rgb(39.215686%,58.431373%,92.941176%);fill-opacity:1;" d="M 44.132812 156.707031 C 44.132812 156.707031 89.265625 127.699219 89.265625 127.699219 C 89.265625 127.699219 54.132812 87.152344 54.132812 87.152344 C 54.132812 87.152344 19 127.699219 19 127.699219 C 19 127.699219 64.132812 156.707031 64.132812 156.707031 C 64.132812 156.707031 86.421875 107.902344 86.421875 107.902344 C 86.421875 107.902344 34.945312 92.789062 34.945312 92.789062 C 34.945312 92.789062 27.308594 145.894531 27.308594 145.894531 C 27.308594 145.894531 80.957031 145.894531 80.957031 145.894531 C 80.957031 145.894531 73.324219 92.789062 73.324219 92.789062 C 73.324219 92.789062 21.847656 107.902344 21.847656 107.902344 C 21.847656 107.902344 44.132812 156.707031 44.132812 156.707031 Z M 44.132812 156.707031 "/>
<path style=" stroke:none;fill-rule:nonzero;fill:rgb(39.215686%,58.431373%,92.941176%);fill-opacity:1;" d="M 111.570312 156.707031 C 111.570312 156.707031 156.707031 127.699219 156.707031 127.699219 C 156.707031 127.699219 121.570312 87.152344 121.570312 87.152344 C 121.570312 87.152344 86.4375 127.699219 86.4375 127.699219 C 86.4375 127.699219 131.570312 156.707031 131.570312 156.707031 C 131.570312 156.707031 153.859375 107.902344 153.859375 107.902344 C 153.859375 107.902344 102.382812 92.789062 102.382812 92.789062 C 102.382812 92.789062 94.746094 145.894531 94.746094 145.894531 C 94.746094 145.894531 148.398438 145.894531 148.398438 145.894531 C 148.398438 145.894531 140.761719 92.789062 140.761719 92.789062 C 140.761719 92.789062 89.285156 107.902344 89.285156 107.902344 C 89.285156 107.902344 111.570312 156.707031 111.570312 156.707031 Z M 111.570312 156.707031 "/>
</g>
</svg>
