<?xml version="1.0" encoding="UTF-8"?>
<svg xmlns="http://www.w3.org/2000/svg" xmlns:xlink="http://www.w3.org/1999/xlink" width="127" height="127" viewBox="0 0 127 127" version="1.1">
<g id="surface631">
<path style="fill:none;stroke-width:1;stroke-linecap:round;stroke-linejoin:miter;stroke:rgb(0%,0%,0%);stroke-opacity:1;stroke-miterlimit:10;" d="M 103.5 103.5 C 103.5 103.5 123.5 103.5 123.5 103.5 C 123.5 103.5 123.5 123.5 123.5 123.5 C 123.5 123.5 103.5 123.5 103.5 123.5 C 103.5 123.5 103.5 103.5 103.5 103.5 Z M 103.5 103.5 "/>
<path style="fill:none;stroke-width:1;stroke-linecap:round;stroke-linejoin:miter;stroke:rgb(0%,0%,0%);stroke-opacity:1;stroke-miterlimit:10;" d="M 83.5 103.5 C 83.5 103.5 103.5 103.5 103.5 103.5 C 103.5 103.5 103.5 123.5 103.5 123.5 C 103.5 123.5 83.5 123.5 83.5 123.5 C 83.5 123.5 83.5 103.5 83.5 103.5 Z M 83.5 103.5 "/>
<path style="fill:none;stroke-width:1;stroke-linecap:round;stroke-linejoin:miter;stroke:rgb(0%,0%,0%);stroke-opacity:1;stroke-miterlimit:10;" d="M 63.5 103.5 C 63.5 103.5 83.5 103.5 83.5 103.5 C 83.5 103.5 83.5 123.5 83.5 123.5 C 83.5 123.5 63.5 123.5 63.5 123.5 C 63.5 123.5 63.5 103.5 63.5 103.5 Z M 63.5 103.5 "/>
<path style="fill:none;stroke-width:1;stroke-linecap:round;stroke-linejoin:miter;stroke:rgb(0%,0%,0%);stroke-opacity:1;stroke-miterlimit:10;" d="M 43.5 103.5 C 43.5 103.5 63.5 103.5 63.5 103.5 C 63.5 103.5 63.5 123.5 63.5 123.5 C 63.5 123.5 43.5 123.5 43.5 123.5 C 43.5 123.5 43.5 103.5 43.5 103.5 Z M 43.5 103.5 "/>
<path style="fill:none;stroke-width:1;stroke-linecap:round;stroke-linejoin:miter;stroke:rgb(0%,0%,0%);stroke-opacity:1;stroke-miterlimit:10;" d="M 23.5 103.5 C 23.5 103.5 43.5 103.5 43.5 103.5 C 43.5 103.5 43.5 123.5 43.5 123.5 C 43.5 123.5 23.5 123.5 23.5 123.5 C 23.5 123.5 23.5 103.5 23.5 103.5 Z M 23.5 103.5 "/>
<path style="fill:none;stroke-width:1;stroke-linecap:round;stroke-linejoin:miter;stroke:rgb(0%,0%,0%);stroke-opacity:1;stroke-miterlimit:10;" d="M 3.5 103.5 C 3.5 103.5 23.5 103.5 23.5 103.5 C 23.5 103.5 23.5 123.5 23.5 123.5 C 23.5 123.5 3.5 123.5 3.5 123.5 C 3.5 123.5 3.5 103.5 3.5 103.5 Z M 3.5 103.5 "/>
<path style="fill:none;stroke-width:1;stroke-linecap:round;stroke-linejoin:miter;stroke:rgb(0%,0%,0%);stroke-opacity:1;stroke-miterlimit:10;" d="M 103.5 83.5 C 103.5 83.5 123.5 83.5 123.5 83.5 C 123.5 83.5 123.5 103.5 123.5 103.5 C 123.5 103.5 103.5 103.5 103.5 103.5 C 103.5 103.5 103.5 83.5 103.5 83.5 Z M 103.5 83.5 "/>
<path style="fill:none;stroke-width:1;stroke-linecap:round;stroke-linejoin:miter;stroke:rgb(0%,0%,0%);stroke-opacity:1;stroke-miterlimit:10;" d="M 83.5 83.5 C 83.5 83.5 103.5 83.5 103.5 83.5 C 103.5 83.5 103.5 103.5 103.5 103.5 C 103.5 103.5 83.5 103.5 83.5 103.5 C 83.5 103.5 83.5 83.5 83.5 83.5 Z M 83.5 83.5 "/>
<path style="fill:none;stroke-width:1;stroke-linecap:round;stroke-linejoin:miter;stroke:rgb(0%,0%,0%);stroke-opacity:1;stroke-miterlimit:10;" d="M 63.5 83.5 C 63.5 83.5 83.5 83.5 83.5 83.5 C 83.5 83.5 83.5 103.5 83.5 103.5 C 83.5 103.5 63.5 103.5 63.5 103.5 C 63.5 103.5 63.5 83.5 63.5 83.5 Z M 63.5 83.5 "/>
<path style="fill:none;stroke-width:1;stroke-linecap:round;stroke-linejoin:miter;stroke:rgb(0%,0%,0%);stroke-opacity:1;stroke-miterlimit:10;" d="M 43.5 83.5 C 43.5 83.5 63.5 83.5 63.5 83.5 C 63.5 83.5 63.5 103.5 63.5 103.5 C 63.5 103.5 43.5 103.5 43.5 103.5 C 43.5 103.5 43.5 83.5 43.5 83.5 Z M 43.5 83.5 "/>
<path style="fill:none;stroke-width:1;stroke-linecap:round;stroke-linejoin:miter;stroke:rgb(0%,0%,0%);stroke-opacity:1;stroke-miterlimit:10;" d="M 23.5 83.5 C 23.5 83.5 43.5 83.5 43.5 83.5 C 43.5 83.5 43.5 103.5 43.5 103.5 C 43.5 103.5 23.5 103.5 23.5 103.5 C 23.5 103.5 23.5 83.5 23.5 83.5 Z M 23.5 83.5 "/>
<path style="fill:none;stroke-width:1;stroke-linecap:round;stroke-linejoin:miter;stroke:rgb(0%,0%,0%);stroke-opacity:1;stroke-miterlimit:10;" d="M 3.5 83.5 C 3.5 83.5 23.5 83.5 23.5 83.5 C 23.5 83.5 23.5 103.5 23.5 103.5 C 23.5 103.5 3.5 103.5 3.5 103.5 C 3.5 103.5 3.5 83.5 3.5 83.5 Z M 3.5 83.5 "/>
<path style="fill:none;stroke-width:1;stroke-linecap:round;stroke-linejoin:miter;stroke:rgb(0%,0%,0%);stroke-opacity:1;stroke-miterlimit:10;" d="M 103.5 63.5 C 103.5 63.5 123.5 63.5 123.5 63.5 C 123.5 63.5 123.5 83.5 123.5 83.5 C 123.5 83.5 103.5 83.5 103.5 83.5 C 103.5 83.5 103.5 63.5 103.5 63.5 Z M 103.5 63.5 "/>
<path style="fill:none;stroke-width:1;stroke-linecap:round;stroke-linejoin:miter;stroke:rgb(0%,0%,0%);stroke-opacity:1;stroke-miterlimit:10;" d="M 83.5 63.5 C 83.5 63.5 103.5 63.5 103.5 63.5 C 103.5 63.5 103.5 83.5 103.5 83.5 C 103.5 83.5 83.5 83.5 83.5 83.5 C 83.5 83.5 83.5 63.5 83.5 63.5 Z M 83.5 63.5 "/>
<path style="fill:none;stroke-width:1;stroke-linecap:round;stroke-linejoin:miter;stroke:rgb(0%,0%,0%);stroke-opacity:1;stroke-miterlimit:10;" d="M 63.5 63.5 C 63.5 63.5 83.5 63.5 83.5 63.5 C 83.5 63.5 83.5 83.5 83.5 83.5 C 83.5 83.5 63.5 83.5 63.5 83.5 C 63.5 83.5 63.5 63.5 63.5 63.5 Z M 63.5 63.5 "/>
<path style="fill:none;stroke-width:1;stroke-linecap:round;stroke-linejoin:miter;stroke:rgb(0%,0%,0%);stroke-opacity:1;stroke-miterlimit:10;" d="M 43.5 63.5 C 43.5 63.5 63.5 63.5 63.5 63.5 C 63.5 63.5 63.5 83.5 63.5 83.5 C 63.5 83.5 43.5 83.5 43.5 83.5 C 43.5 83.5 43.5 63.5 43.5 63.5 Z M 43.5 63.5 "/>
<path style="fill:none;stroke-width:1;stroke-linecap:round;stroke-linejoin:miter;stroke:rgb(0%,0%,0%);stroke-opacity:1;stroke-miterlimit:10;" d="M 23.5 63.5 C 23.5 63.5 43.5 63.5 43.5 63.5 C 43.5 63.5 43.5 83.5 43.5 83.5 C 43.5 83.5 23.5 83.5 23.5 83.5 C 23.5 83.5 23.5 63.5 23.5 63.5 Z M 23.5 63.5 "/>
<path style="fill:none;stroke-width:1;stroke-linecap:round;stroke-linejoin:miter;stroke:rgb(0%,0%,0%);stroke-opacity:1;stroke-miterlimit:10;" d="M 3.5 63.5 C 3.5 63.5 23.5 63.5 23.5 63.5 C 23.5 63.5 23.5 83.5 23.5 83.5 C 23.5 83.5 3.5 83.5 3.5 83.5 C 3.5 83.5 3.5 63.5 3.5 63.5 Z M 3.5 63.5 "/>
<path style="fill:none;stroke-width:1;stroke-linecap:round;stroke-linejoin:miter;stroke:rgb(0%,0%,0%);stroke-opacity:1;stroke-miterlimit:10;" d="M 103.5 43.5 C 103.5 43.5 123.5 43.5 123.5 43.5 C 123.5 43.5 123.5 63.5 123.5 63.5 C 123.5 63.5 103.5 63.5 103.5 63.5 C 103.5 63.5 103.5 43.5 103.5 43.5 Z M 103.5 43.5 "/>
<path style="fill:none;stroke-width:1;stroke-linecap:round;stroke-linejoin:miter;stroke:rgb(0%,0%,0%);stroke-opacity:1;stroke-miterlimit:10;" d="M 83.5 43.5 C 83.5 43.5 103.5 43.5 103.5 43.5 C 103.5 43.5 103.5 63.5 103.5 63.5 C 103.5 63.5 83.5 63.5 83.5 63.5 C 83.5 63.5 83.5 43.5 83.5 43.5 Z M 83.5 43.5 "/>
<path style="fill:none;stroke-width:1;stroke-linecap:round;stroke-linejoin:miter;stroke:rgb(0%,0%,0%);stroke-opacity:1;stroke-miterlimit:10;" d="M 63.5 43.5 C 63.5 43.5 83.5 43.5 83.5 43.5 C 83.5 43.5 83.5 63.5 83.5 63.5 C 83.5 63.5 63.5 63.5 63.5 63.5 C 63.5 63.5 63.5 43.5 63.5 43.5 Z M 63.5 43.5 "/>
<path style="fill:none;stroke-width:1;stroke-linecap:round;stroke-linejoin:miter;stroke:rgb(0%,0%,0%);stroke-opacity:1;stroke-miterlimit:10;" d="M 43.5 43.5 C 43.5 43.5 63.5 43.5 63.5 43.5 C 63.5 43.5 63.5 63.5 63.5 63.5 C 63.5 63.5 43.5 63.5 43.5 63.5 C 43.5 63.5 43.5 43.5 43.5 43.5 Z M 43.5 43.5 "/>
<path style="fill:none;stroke-width:1;stroke-linecap:round;stroke-linejoin:miter;stroke:rgb(0%,0%,0%);stroke-opacity:1;stroke-miterlimit:10;" d="M 23.5 43.5 C 23.5 43.5 43.5 43.5 43.5 43.5 C 43.5 43.5 43.5 63.5 43.5 63.5 C 43.5 63.5 23.5 63.5 23.5 63.5 C 23.5 63.5 23.5 43.5 23.5 43.5 Z M 23.5 43.5 "/>
<path style="fill:none;stroke-width:1;stroke-linecap:round;stroke-linejoin:miter;stroke:rgb(0%,0%,0%);stroke-opacity:1;stroke-miterlimit:10;" d="M 3.5 43.5 C 3.5 43.5 23.5 43.5 23.5 43.5 C 23.5 43.5 23.5 63.5 23.5 63.5 C 23.5 63.5 3.5 63.5 3.5 63.5 C 3.5 63.5 3.5 43.5 3.5 43.5 Z M 3.5 43.5 "/>
<path style="fill:none;stroke-width:1;stroke-linecap:round;stroke-linejoin:miter;stroke:rgb(0%,0%,0%);stroke-opacity:1;stroke-miterlimit:10;" d="M 103.5 23.5 C 103.5 23.5 123.5 23.5 123.5 23.5 C 123.5 23.5 123.5 43.5 123.5 43.5 C 123.5 43.5 103.5 43.5 103.5 43.5 C 103.5 43.5 103.5 23.5 103.5 23.5 Z M 103.5 23.5 "/>
<path style="fill:none;stroke-width:1;stroke-linecap:round;stroke-linejoin:miter;stroke:rgb(0%,0%,0%);stroke-opacity:1;stroke-miterlimit:10;" d="M 83.5 23.5 C 83.5 23.5 103.5 23.5 103.5 23.5 C 103.5 23.5 103.5 43.5 103.5 43.5 C 103.5 43.5 83.5 43.5 83.5 43.5 C 83.5 43.5 83.5 23.5 83.5 23.5 Z M 83.5 23.5 "/>
<path style="fill:none;stroke-width:1;stroke-linecap:round;stroke-linejoin:miter;stroke:rgb(0%,0%,0%);stroke-opacity:1;stroke-miterlimit:10;" d="M 63.5 23.5 C 63.5 23.5 83.5 23.5 83.5 23.5 C 83.5 23.5 83.5 43.5 83.5 43.5 C 83.5 43.5 63.5 43.5 63.5 43.5 C 63.5 43.5 63.5 23.5 63.5 23.5 Z M 63.5 23.5 "/>
<path style="fill:none;stroke-width:1;stroke-linecap:round;stroke-linejoin:miter;stroke:rgb(0%,0%,0%);stroke-opacity:1;stroke-miterlimit:10;" d="M 43.5 23.5 C 43.5 23.5 63.5 23.5 63.5 23.5 C 63.5 23.5 63.5 43.5 63.5 43.5 C 63.5 43.5 43.5 43.5 43.5 43.5 C 43.5 43.5 43.5 23.5 43.5 23.5 Z M 43.5 23.5 "/>
<path style="fill:none;stroke-width:1;stroke-linecap:round;stroke-linejoin:miter;stroke:rgb(0%,0%,0%);stroke-opacity:1;stroke-miterlimit:10;" d="M 23.5 23.5 C 23.5 23.5 43.5 23.5 43.5 23.5 C 43.5 23.5 43.5 43.5 43.5 43.5 C 43.5 43.5 23.5 43.5 23.5 43.5 C 23.5 43.5 23.5 23.5 23.5 23.5 Z M 23.5 23.5 "/>
<path style="fill:none;stroke-width:1;stroke-linecap:round;stroke-linejoin:miter;stroke:rgb(0%,0%,0%);stroke-opacity:1;stroke-miterlimit:10;" d="M 3.5 23.5 C 3.5 23.5 23.5 23.5 23.5 23.5 C 23.5 23.5 23.5 43.5 23.5 43.5 C 23.5 43.5 3.5 43.5 3.5 43.5 C 3.5 43.5 3.5 23.5 3.5 23.5 Z M 3.5 23.5 "/>
<path style="fill:none;stroke-width:1;stroke-linecap:round;stroke-linejoin:miter;stroke:rgb(0%,0%,0%);stroke-opacity:1;stroke-miterlimit:10;" d="M 103.5 3.5 C 103.5 3.5 123.5 3.5 123.5 3.5 C 123.5 3.5 123.5 23.5 123.5 23.5 C 123.5 23.5 103.5 23.5 103.5 23.5 C 103.5 23.5 103.5 3.5 103.5 3.5 Z M 103.5 3.5 "/>
<path style="fill:none;stroke-width:1;stroke-linecap:round;stroke-linejoin:miter;stroke:rgb(0%,0%,0%);stroke-opacity:1;stroke-miterlimit:10;" d="M 83.5 3.5 C 83.5 3.5 103.5 3.5 103.5 3.5 C 103.5 3.5 103.5 23.5 103.5 23.5 C 103.5 23.5 83.5 23.5 83.5 23.5 C 83.5 23.5 83.5 3.5 83.5 3.5 Z M 83.5 3.5 "/>
<path style="fill:none;stroke-width:1;stroke-linecap:round;stroke-linejoin:miter;stroke:rgb(0%,0%,0%);stroke-opacity:1;stroke-miterlimit:10;" d="M 63.5 3.5 C 63.5 3.5 83.5 3.5 83.5 3.5 C 83.5 3.5 83.5 23.5 83.5 23.5 C 83.5 23.5 63.5 23.5 63.5 23.5 C 63.5 23.5 63.5 3.5 63.5 3.5 Z M 63.5 3.5 "/>
<path style="fill:none;stroke-width:1;stroke-linecap:round;stroke-linejoin:miter;stroke:rgb(0%,0%,0%);stroke-opacity:1;stroke-miterlimit:10;" d="M 43.5 3.5 C 43.5 3.5 63.5 3.5 63.5 3.5 C 63.5 3.5 63.5 23.5 63.5 23.5 C 63.5 23.5 43.5 23.5 43.5 23.5 C 43.5 23.5 43.5 3.5 43.5 3.5 Z M 43.5 3.5 "/>
<path style="fill:none;stroke-width:1;stroke-linecap:round;stroke-linejoin:miter;stroke:rgb(0%,0%,0%);stroke-opacity:1;stroke-miterlimit:10;" d="M 23.5 3.5 C 23.5 3.5 43.5 3.5 43.5 3.5 C 43.5 3.5 43.5 23.5 43.5 23.5 C 43.5 23.5 23.5 23.5 23.5 23.5 C 23.5 23.5 23.5 3.5 23.5 3.5 Z M 23.5 3.5 "/>
<path style="fill:none;stroke-width:1;stroke-linecap:round;stroke-linejoin:miter;stroke:rgb(0%,0%,0%);stroke-opacity:1;stroke-miterlimit:10;" d="M 3.5 3.5 C 3.5 3.5 23.5 3.5 23.5 3.5 C 23.5 3.5 23.5 23.5 23.5 23.5 C 23.5 23.5 3.5 23.5 3.5 23.5 C 3.5 23.5 3.5 3.5 3.5 3.5 Z M 3.5 3.5 "/>
</g>
</svg>
