<?xml version="1.0" encoding="UTF-8"?>
<svg xmlns="http://www.w3.org/2000/svg" xmlns:xlink="http://www.w3.org/1999/xlink" width="87" height="87" viewBox="0 0 87 87" version="1.1">
<g id="surface1305">
<path style=" stroke:none;fill-rule:evenodd;fill:rgb(74.509804%,74.509804%,74.509804%);fill-opacity:1;" d="M 83 43 C 83 65.089844 65.089844 83 43 83 C 20.910156 83 3 65.089844 3 43 C 3 20.910156 20.910156 3 43 3 C 65.089844 3 83 20.910156 83 43 Z M 83 43 "/>
<path style=" stroke:none;fill-rule:evenodd;fill:rgb(14.117647%,14.117647%,54.901961%);fill-opacity:1;" d="M 68 33 C 68 38.523438 63.523438 43 58 43 C 52.476562 43 48 38.523438 48 33 C 48 27.476562 52.476562 23 58 23 C 63.523438 23 68 27.476562 68 33 Z M 68 33 "/>
<path style=" stroke:none;fill-rule:evenodd;fill:rgb(14.117647%,14.117647%,54.901961%);fill-opacity:1;" d="M 38 33 C 38 38.523438 33.523438 43 28 43 C 22.476562 43 18 38.523438 18 33 C 18 27.476562 22.476562 23 28 23 C 33.523438 23 38 27.476562 38 33 Z M 38 33 "/>
</g>
</svg>
