<?xml version="1.0" encoding="UTF-8"?>
<svg xmlns="http://www.w3.org/2000/svg" xmlns:xlink="http://www.w3.org/1999/xlink" width="55" height="55" viewBox="0 0 55 55" version="1.1">
<defs>
<clipPath id="clip1">
  <path d="M 3 3 L 51 3 L 51 51 L 3 51 Z M 3 3 "/>
</clipPath>
</defs>
<g id="surface1401">
<path style=" stroke:none;fill-rule:nonzero;fill:rgb(74.509804%,74.509804%,74.509804%);fill-opacity:1;" d="M 3 3 C 3 3 51 3 51 3 C 51 3 51 51 51 51 C 51 51 3 51 3 51 C 3 51 3 3 3 3 Z M 3 3 "/>
<g clip-path="url(#clip1)" clip-rule="nonzero">
<path style=" stroke:none;fill-rule:nonzero;fill:rgb(100%,0%,0%);fill-opacity:1;" d="M -5 54.710938 C -5 54.710938 59 54.710938 59 54.710938 C 59 54.710938 27 -0.710938 27 -0.710938 C 27 -0.710938 -5 54.710938 -5 54.710938 Z M -5 54.710938 "/>
</g>
</g>
</svg>
