<?xml version="1.0" encoding="UTF-8"?>
<svg xmlns="http://www.w3.org/2000/svg" xmlns:xlink="http://www.w3.org/1999/xlink" width="77" height="82" viewBox="0 0 77 82" version="1.1">
<g id="surface453">
<path style=" stroke:none;fill-rule:nonzero;fill:rgb(0%,0%,0%);fill-opacity:1;" d="M 3 37.640625 C 3 37.640625 73 37.640625 73 37.640625 C 73 37.640625 73 77.640625 73 77.640625 C 73 77.640625 3 77.640625 3 77.640625 C 3 77.640625 3 37.640625 3 37.640625 Z M 3 37.640625 "/>
<path style=" stroke:none;fill-rule:nonzero;fill:rgb(100%,0%,0%);fill-opacity:1;" d="M 43 33.3125 C 43 33.3125 73 33.3125 73 33.3125 C 73 33.3125 58 7.332031 58 7.332031 C 58 7.332031 43 33.3125 43 33.3125 Z M 43 33.3125 "/>
<path style=" stroke:none;fill-rule:nonzero;fill:rgb(100%,0%,0%);fill-opacity:1;" d="M 3 37.640625 C 3 37.640625 43 37.640625 43 37.640625 C 43 37.640625 23 3 23 3 C 23 3 3 37.640625 3 37.640625 Z M 3 37.640625 "/>
</g>
</svg>
