<?xml version="1.0" encoding="UTF-8"?>
<svg xmlns="http://www.w3.org/2000/svg" xmlns:xlink="http://www.w3.org/1999/xlink" width="77" height="82" viewBox="0 0 77 82" version="1.1">
<g id="surface465">
<path style=" stroke:none;fill-rule:nonzero;fill:rgb(0%,0%,0%);fill-opacity:1;" d="M 3 37.640625 C 3 37.640625 73 37.640625 73 37.640625 C 73 37.640625 73 77.640625 73 77.640625 C 73 77.640625 3 77.640625 3 77.640625 C 3 77.640625 3 37.640625 3 37.640625 Z M 3 37.640625 "/>
<path style=" stroke:none;fill-rule:nonzero;fill:rgb(100%,0%,0%);fill-opacity:1;" d="M 43 37.640625 C 43 37.640625 73 37.640625 73 37.640625 C 73 37.640625 58 11.660156 58 11.660156 C 58 11.660156 43 37.640625 43 37.640625 Z M 43 37.640625 "/>
<path style=" stroke:none;fill-rule:nonzero;fill:rgb(100%,0%,0%);fill-opacity:1;" d="M 3 37.640625 C 3 37.640625 43 37.640625 43 37.640625 C 43 37.640625 23 3 23 3 C 23 3 3 37.640625 3 37.640625 Z M 3 37.640625 "/>
<path style=" stroke:none;fill-rule:nonzero;fill:rgb(51.764706%,23.529412%,14.117647%);fill-opacity:1;" d="M 30.5 52.640625 C 30.5 52.640625 45.5 52.640625 45.5 52.640625 C 45.5 52.640625 45.5 77.640625 45.5 77.640625 C 45.5 77.640625 30.5 77.640625 30.5 77.640625 C 30.5 77.640625 30.5 52.640625 30.5 52.640625 Z M 30.5 52.640625 "/>
</g>
</svg>
